<svg width="220" height="44" viewBox="0 0 254 44" fill="none" xmlns="http://www.w3.org/2000/svg">
  <path fill-rule="evenodd" clip-rule="evenodd"
    d="M70.627 21.7552C70.627 33.7703 80.3671 43.5103 92.3821 43.5103C104.397 43.5103 114.137 33.7703 114.137 21.7552C114.137 9.74013 104.397 0 92.3821 0C80.3671 0 70.627 9.74013 70.627 21.7552ZM109.351 21.7553C109.351 31.127 101.754 38.7243 92.3821 38.7243C83.0103 38.7243 75.4131 31.127 75.4131 21.7553C75.4131 12.3835 83.0103 4.78625 92.3821 4.78625C101.754 4.78625 109.351 12.3835 109.351 21.7553ZM21.7552 21.9128C21.7552 27.9204 16.8851 32.7904 10.8776 32.7904C4.87005 32.7904 0 27.9204 0 21.9128C0 15.9053 4.87005 11.0352 10.8776 11.0352C16.8851 11.0352 21.7552 15.9053 21.7552 21.9128ZM57.068 21.9128C57.068 27.9204 52.1976 32.7904 46.1901 32.7904C40.1825 32.7904 35.3126 27.9204 35.3126 21.9128C35.3126 15.9053 40.1825 11.0352 46.1901 11.0352C52.1976 11.0352 57.068 15.9053 57.068 21.9128ZM147.143 28.6327C146.704 29.2392 146.171 29.809 145.544 30.3423C144.916 30.8755 144.221 31.3408 143.458 31.7382C142.694 32.1355 141.868 32.4492 140.98 32.6792C140.091 32.9092 139.165 33.0243 138.204 33.0243C136.614 33.0243 135.161 32.7524 133.844 32.2087C132.526 31.665 131.391 30.9069 130.44 29.9345C129.489 28.9621 128.751 27.812 128.228 26.484C127.706 25.1561 127.444 23.6975 127.444 22.1082C127.444 20.5607 127.706 19.1125 128.228 17.7637C128.751 16.4149 129.489 15.2438 130.44 14.2505C131.391 13.2571 132.531 12.473 133.859 11.8979C135.187 11.3228 136.656 11.0352 138.266 11.0352C140.211 11.0352 141.91 11.3907 143.364 12.1018C144.817 12.8128 146.025 13.8374 146.987 15.1758L143.756 18.2813C143.128 17.403 142.386 16.6972 141.529 16.1639C140.671 15.6307 139.646 15.364 138.454 15.364C137.514 15.364 136.667 15.5366 135.914 15.8816C135.161 16.2267 134.523 16.7024 134 17.3089C133.478 17.9153 133.075 18.6211 132.793 19.4262C132.51 20.2313 132.369 21.0835 132.369 21.9827C132.369 22.9028 132.51 23.7602 132.793 24.5549C133.075 25.3495 133.478 26.0396 134 26.6252C134.523 27.2107 135.15 27.6708 135.882 28.0054C136.614 28.34 137.44 28.5073 138.36 28.5073C139.113 28.5073 139.767 28.4288 140.321 28.272C140.875 28.1152 141.367 27.906 141.795 27.6446C142.224 27.3832 142.605 27.08 142.94 26.735C143.275 26.3899 143.599 26.0396 143.913 25.6841L147.143 28.6327ZM148.555 17.7792H152.883L153.04 19.6299C153.417 19.128 153.934 18.647 154.593 18.1869C155.252 17.7269 156.104 17.4969 157.15 17.4969C157.547 17.4969 157.887 17.5178 158.169 17.5596C158.451 17.6014 158.728 17.6746 159 17.7792L158.278 21.7629C157.819 21.6165 157.275 21.5433 156.648 21.5433C155.581 21.5433 154.718 21.8622 154.06 22.5C153.401 23.1379 153.072 24.0423 153.072 25.2134V32.4908H148.555V17.7792ZM174.529 30.8913C174.361 30.9959 174.11 31.1684 173.776 31.4089C173.441 31.6494 173.007 31.8846 172.474 32.1147C171.941 32.3447 171.308 32.5486 170.576 32.7263C169.844 32.9041 169.008 32.993 168.067 32.993C166.812 32.993 165.683 32.7995 164.679 32.4127C163.675 32.0258 162.823 31.4873 162.123 30.7972C161.422 30.1071 160.889 29.2758 160.523 28.3034C160.157 27.331 159.974 26.2593 159.974 25.0882C159.974 24.0635 160.146 23.0754 160.491 22.1239C160.837 21.1724 161.333 20.3412 161.982 19.6302C162.63 18.9191 163.424 18.3493 164.365 17.9206C165.307 17.4919 166.373 17.2776 167.565 17.2776C168.757 17.2776 169.803 17.4867 170.702 17.9049C171.601 18.3232 172.359 18.9035 172.976 19.6458C173.593 20.3882 174.058 21.277 174.372 22.3121C174.685 23.3473 174.842 24.4817 174.842 25.7156V26.4684H164.365C164.386 27.2631 164.737 27.9584 165.416 28.5544C166.096 29.1504 167.032 29.4484 168.224 29.4484C169.395 29.4484 170.346 29.2758 171.078 28.9308C171.81 28.5857 172.343 28.2878 172.678 28.0368L174.529 30.8913ZM170.575 23.5824C170.575 23.2687 170.512 22.9498 170.387 22.6256C170.261 22.3015 170.073 22.0035 169.822 21.7317C169.571 21.4598 169.257 21.235 168.881 21.0572C168.505 20.8795 168.055 20.7906 167.532 20.7906C167.009 20.7906 166.549 20.8795 166.152 21.0572C165.755 21.235 165.425 21.4598 165.164 21.7317C164.903 22.0035 164.704 22.3015 164.568 22.6256C164.432 22.9498 164.364 23.2687 164.364 23.5824H170.575ZM187.42 31.0168C186.96 31.5606 186.369 32.0154 185.647 32.3814C184.926 32.7473 184.105 32.9303 183.185 32.9303C182.286 32.9303 181.444 32.7525 180.66 32.397C179.876 32.0415 179.196 31.5344 178.621 30.8757C178.046 30.2169 177.591 29.4223 177.256 28.4917C176.922 27.5611 176.754 26.5103 176.754 25.3392C176.754 24.0218 176.99 22.8664 177.46 21.8731C177.931 20.8797 178.537 20.059 179.28 19.4107C180.022 18.7624 180.848 18.2762 181.758 17.952C182.668 17.6279 183.561 17.4659 184.44 17.4659C185.151 17.4659 185.705 17.5129 186.102 17.607C186.5 17.7011 186.908 17.8214 187.326 17.9677V11.5687H191.811V32.4911H187.608L187.42 31.0168ZM187.325 21.8262C187.012 21.638 186.672 21.502 186.306 21.4184C185.94 21.3347 185.485 21.2929 184.941 21.2929C183.791 21.2929 182.897 21.6798 182.259 22.4535C181.621 23.2273 181.302 24.2206 181.302 25.4335C181.302 26.5 181.564 27.3731 182.087 28.0527C182.61 28.7324 183.394 29.0722 184.439 29.0722C184.941 29.0722 185.375 28.9833 185.741 28.8056C186.107 28.6278 186.41 28.3925 186.651 28.0998C186.891 27.807 187.064 27.462 187.169 27.0647C187.273 26.6673 187.325 26.2595 187.325 25.8413V21.8262ZM195.262 17.7791H199.779V32.4907H195.262V17.7791ZM195.105 11.5687H199.935V15.6151H195.105V11.5687ZM213.84 24.9885V18.3125C213.84 17.6517 213.84 16.519 213.18 15.7953C212.991 15.575 212.424 15.1031 211.386 15.1031C210.41 15.1031 209.876 15.5436 209.592 15.8268C208.9 16.5504 208.869 17.248 208.869 17.6571H211.972V21.3699L208.869 21.3699V32.5223H204.338V21.3699H201.989V17.6571H204.338C204.338 16.1153 204.464 14.5681 205.911 13.0264C207.484 11.3902 209.687 11.2014 211.26 11.2014C212.77 11.2014 215.13 11.4217 216.672 12.8691C218.214 14.3165 218.371 16.1729 218.371 18.8789V23.9146L218.386 28.2948C218.386 29.1566 218.644 29.4726 219.133 29.4726C219.391 29.4726 219.679 29.4152 219.908 29.329L221.086 32.1663C220.311 32.4823 218.842 32.9234 217.779 32.9234C215.222 32.9234 213.847 31.4633 213.847 28.7545V25.4677C213.842 25.3126 213.84 25.1529 213.84 24.9885ZM237.897 17.7791L243.265 25.1244L237.803 32.501H242.731L245.682 28.2634L248.601 32.501H254L248.35 24.8105L253.529 17.7791H248.601L245.933 21.7029L243.296 17.7791H237.897ZM221.912 17.7791H226.444V26.2784C226.444 27.1178 226.649 27.7789 227.058 28.2615C227.467 28.7442 228.071 28.9856 228.868 28.9856C229.33 28.9856 229.739 28.8964 230.096 28.718C230.453 28.5396 230.757 28.3035 231.009 28.0097C231.26 27.7159 231.45 27.3697 231.575 26.9709C231.701 26.5722 231.764 26.1629 231.764 25.7432V17.7791H236.266V32.5427H231.922L231.796 30.9687C231.313 31.5353 230.678 32.0023 229.891 32.3695C229.104 32.7368 228.281 32.9204 227.42 32.9204C225.72 32.9204 224.377 32.4168 223.391 31.4094C222.405 30.4021 221.912 28.9121 221.912 26.9395V17.7791Z"
    fill="#858585" />
</svg>