<svg width="125" height="40" viewBox="0 0 125 40" fill="none" xmlns="http://www.w3.org/2000/svg">
<path d="M63.6527 7.73784C63.6527 5.14709 61.6965 3.75209 59.3772 3.75209H53.779V16.4333H56.6415V12.1213H59.069C62.0403 12.1213 63.6522 10.1288 63.6522 7.73759H63.6527V7.73784ZM60.6632 7.91909C60.6632 9.00609 59.957 9.73109 58.9965 9.73109H56.6232V6.14409H58.9965C59.9565 6.14409 60.6632 6.76034 60.6632 7.91984V7.91909V7.91909ZM71.1165 9.20534V6.41534H70.247C69.2508 6.41534 68.2907 6.85034 67.8012 7.68359V6.41534H65.102V16.4336H67.892V11.1073C67.892 9.71234 68.707 9.18734 70.084 9.18734C70.4645 9.18734 71.1165 9.20534 71.1165 9.20534V9.20534ZM76.7865 16.5603C79.6852 16.5603 81.7503 14.8211 81.7503 11.4336C81.7503 8.02784 79.6852 6.28859 76.7865 6.28859C73.9057 6.28859 71.8408 8.02784 71.8408 11.4336C71.8408 14.8211 73.9057 16.5603 76.7865 16.5603ZM76.7865 8.55284C78.0002 8.55284 78.9057 9.36784 78.9057 11.4336C78.9057 13.4806 78 14.2961 76.7865 14.2961C75.609 14.2961 74.6852 13.4811 74.6852 11.4336C74.6852 9.36859 75.609 8.55284 76.7865 8.55284ZM88.6345 16.3973V14.0786C88.6345 14.0786 88.0007 14.1331 87.4207 14.1331C86.8227 14.1331 86.642 13.9698 86.642 13.3543V8.66259H88.7615V6.41634H86.642V3.75334H83.834V6.41634H82.3845V8.66259H83.834V13.4993C83.834 15.3656 84.1057 16.5068 86.4427 16.5068C87.7107 16.5068 88.6345 16.3981 88.6345 16.3981V16.3976V16.3973ZM94.4315 16.5603C97.3302 16.5603 99.3952 14.8211 99.3952 11.4336C99.3952 8.02784 97.3302 6.28859 94.4315 6.28859C91.5507 6.28859 89.4857 8.02784 89.4857 11.4336C89.4857 14.8211 91.5507 16.5603 94.4315 16.5603ZM94.4315 8.55284C95.6452 8.55284 96.5508 9.36784 96.5508 11.4336C96.5508 13.4806 95.645 14.2961 94.4315 14.2961C93.254 14.2961 92.3302 13.4811 92.3302 11.4336C92.3302 9.36859 93.254 8.55284 94.4315 8.55284ZM107.113 12.6471C106.931 13.8426 106.116 14.2958 105.229 14.2958C104.088 14.2958 103.182 13.4808 103.182 11.4333C103.182 9.36834 104.069 8.55259 105.265 8.55259C106.207 8.55259 106.932 9.02384 107.077 10.2558H109.885C109.65 7.61084 107.766 6.28834 105.248 6.28834C102.367 6.28834 100.302 8.08209 100.302 11.4696C100.302 14.8753 102.421 16.5601 105.302 16.5601C107.875 16.5601 109.614 15.2376 109.903 12.6471H107.113H107.113ZM115.663 16.5601C118.562 16.5601 120.627 14.8208 120.627 11.4333C120.627 8.02759 118.562 6.28834 115.663 6.28834C112.783 6.28834 110.718 8.02759 110.718 11.4333C110.718 14.8208 112.783 16.5601 115.663 16.5601ZM115.663 8.55259C116.877 8.55259 117.783 9.36759 117.783 11.4333C117.783 13.4803 116.877 14.2958 115.663 14.2958C114.486 14.2958 113.562 13.4808 113.562 11.4333C113.562 9.36834 114.486 8.55259 115.663 8.55259ZM124.776 16.4333V3.02759H121.986V16.4333H124.776ZM62.7652 36.3608V33.8608H56.6423V23.6796H53.7797V36.3608H62.7652V36.3608ZM70.3197 32.5201C70.3197 33.3713 69.7397 34.4581 68.0915 34.4581C67.0227 34.4581 66.7327 33.7881 66.7327 33.3348C66.7327 32.7011 67.222 32.3023 67.892 32.1756C68.58 32.0306 70.3195 31.8131 70.3195 31.8131V32.5198L70.3197 32.5201ZM64.1965 29.6213H66.896C66.896 29.2226 67.0047 28.3896 68.6535 28.3896C69.9942 28.3896 70.3205 28.8608 70.3205 29.5491V29.8933L67.0235 30.3646C66.0997 30.4916 63.8715 31.0526 63.8715 33.3358C63.8715 35.3466 65.4115 36.4878 67.4765 36.4878C69.1978 36.4878 69.9585 35.9078 70.3932 35.4553V36.3611H73.3465C73.3465 36.3611 73.129 35.6003 73.129 34.8756V29.4768C73.129 28.0276 72.332 26.2161 68.6547 26.2161C64.8505 26.2161 64.2348 28.1541 64.1985 29.6218H64.1967L64.1965 29.6213ZM77.729 36.3608V35.3826C78.2365 36.0163 79.124 36.4876 80.229 36.4876C82.9465 36.4876 84.812 34.7481 84.812 31.3606C84.812 27.9551 82.91 26.2156 80.392 26.2156C79.287 26.2156 78.2362 26.6868 77.729 27.3206V22.9543H74.939V36.3601H77.729V36.3606V36.3608ZM79.8483 28.4801C81.062 28.4801 81.9678 29.2951 81.9678 31.3606C81.9678 33.4076 81.062 34.2231 79.8483 34.2231C78.4895 34.2231 77.747 33.5893 77.747 31.3606C77.747 29.1143 78.4895 28.4801 79.8483 28.4801ZM91.7865 29.3131H94.522C94.522 28.5343 94.1232 26.2151 90.21 26.2151C87.8187 26.2151 85.9163 27.2838 85.9163 29.3488C85.9163 31.6856 87.8 32.1751 89.9562 32.4651L90.5 32.5376C91.2788 32.6463 92.0037 32.8096 92.0037 33.4251C92.0037 34.1496 91.225 34.4396 90.337 34.4396C89.377 34.4396 88.525 34.1496 88.525 33.1896H85.7168C85.7168 33.7151 85.9522 36.4866 90.173 36.4866C93.923 36.4866 94.8288 34.6566 94.8288 33.1171C94.8288 29.0771 88.7055 30.6896 88.7055 29.1496C88.7055 28.4616 89.4662 28.2438 90.173 28.2438C91.133 28.2438 91.7855 28.6246 91.7855 29.3126L91.7862 29.3131H91.7865ZM18.7665 29.4201C19.196 29.6681 19.5448 30.2743 19.5448 30.7681V39.3006C19.5448 39.7968 19.194 39.9968 18.7668 39.7506L11.383 35.4886C10.9537 35.2403 10.605 34.6343 10.605 34.1406V25.6081C10.605 25.1118 10.9557 24.9118 11.383 25.1581L18.7668 29.4198L18.7665 29.4201ZM30.156 21.8931C30.156 22.3893 29.8053 22.9936 29.3778 23.2411L21.991 27.5048C21.5615 27.7531 21.213 27.5493 21.213 27.0556V18.5256C21.213 18.0293 21.5638 17.4248 21.991 17.1773L29.3778 12.9136C29.8073 12.6656 30.156 12.8691 30.156 13.3628L30.1553 21.8936L30.156 21.8931ZM28.5335 10.5681C28.9705 10.8201 28.9735 11.2268 28.546 11.4738L21.1553 15.7393C20.7253 15.9876 20.0215 15.9831 19.5865 15.7318L1.61725 5.35934C1.18025 5.10734 1.17725 4.70059 1.60525 4.45384L8.9965 0.187594C9.4265 -0.0604057 10.1302 -0.0561557 10.5652 0.195094L28.5335 10.5696L28.5328 10.5688L28.5333 10.5683L28.5335 10.5681ZM8.93675 33.1731C8.93675 33.6706 8.586 33.8711 8.15975 33.6243L0.77675 29.3626C0.3475 29.1143 0 28.5031 0 28.0013V7.25384C0 6.74959 0.35625 6.54634 0.7905 6.79759L18.755 17.1671C19.192 17.4188 19.5455 18.0283 19.5455 18.5221V27.0538C19.5455 27.5501 19.1925 27.7488 18.7655 27.5021L9.71725 22.2801C9.286 22.0318 8.93725 22.2376 8.93725 22.7301V33.1721L8.93675 33.1726V33.1731V33.1731ZM31.818 12.4048C31.818 11.9073 32.1687 11.3023 32.5962 11.0556L39.9818 6.79184C40.4113 6.54384 40.76 6.75384 40.76 7.25559V28.0031C40.76 28.5073 40.4037 29.1218 39.9692 29.3718L22.005 39.7411C21.568 39.9931 21.2145 39.7931 21.2145 39.2993V30.7668C21.2145 30.2706 21.567 29.6643 21.9945 29.4181L31.0382 24.1981C31.4682 23.9498 31.8183 23.3406 31.8183 22.8473L31.8188 12.4041V12.4046H31.8183L31.818 12.4048ZM22.82 5.34859C22.39 5.10059 22.3925 4.69734 22.82 4.44984L30.2093 0.185344C30.6388 -0.0626557 31.338 -0.0609057 31.7655 0.185344L39.1547 4.45109C39.5842 4.69909 39.5822 5.10234 39.1547 5.34984L31.766 9.61534C31.3365 9.86334 30.6373 9.86159 30.2098 9.61534L22.8205 5.34909H22.82V5.34834V5.34859Z" fill="#252A2E"/>
</svg>
