<svg width="170" height="44" viewBox="0 0 189 44" fill="none" xmlns="http://www.w3.org/2000/svg">
  <path fill-rule="evenodd" clip-rule="evenodd"
    d="M182.142 11.3195V6.12415H188.264V17.7628C188.264 26.4409 181.27 33.5519 172.593 33.697C163.683 33.8713 156.368 26.3539 156.368 17.4434V10.6228L170.097 0H182.142V6.12415H162.492V10.3327V26.586H182.142V11.3195ZM46.5831 39.0076H40.5753H40.5464V38.3691V20.1418H47.5991V15.9625H40.5464V8.64836H35.8443V15.9625H29.5751V20.1709H35.8443V34.2766C35.8443 37.2952 36.5991 39.5301 38.0501 40.9811C39.5304 42.4614 41.7653 43.1871 44.7548 43.1871H48.4118V39.0076H46.5831ZM121.756 16.3398C123.556 17.0945 124.978 18.1973 126.023 19.6486C127.068 21.0708 127.619 22.7251 127.706 24.6117H122.743C122.453 21.1288 120.015 19.3874 115.429 19.3874C113.426 19.3874 111.888 19.7645 110.785 20.5483C109.682 21.3029 109.131 22.2898 109.131 23.4797C109.131 24.4956 109.508 25.2211 110.263 25.6856C111.017 26.15 112.294 26.5564 114.123 26.9335L119.086 27.9785C121.785 28.5299 123.846 29.3427 125.297 30.3874C126.748 31.4325 127.474 33.0869 127.474 35.3505C127.474 37.0342 126.981 38.5143 126.023 39.8203C125.036 41.1265 123.672 42.1424 121.901 42.8679C120.131 43.5934 118.099 43.9709 115.806 43.9709C111.656 43.9709 108.434 43.042 106.17 41.1844C103.906 39.327 102.542 36.8599 102.078 33.7834H107.041C107.708 37.7888 110.611 39.7912 115.777 39.7912C118.041 39.7912 119.783 39.385 120.972 38.5723C122.162 37.7597 122.743 36.7728 122.743 35.6119C122.743 34.8573 122.54 34.2479 122.133 33.8704C121.727 33.464 121.176 33.174 120.479 32.9415C119.783 32.7385 118.622 32.4483 116.967 32.1L112.004 31.055C109.595 30.5616 107.737 29.7489 106.402 28.5879C105.067 27.4269 104.4 25.7725 104.4 23.5667C104.4 20.9838 105.445 18.9519 107.534 17.4429C109.624 15.9335 112.323 15.1789 115.661 15.1789C117.925 15.1789 119.957 15.5852 121.756 16.3398ZM65.7394 15.8752C62.1405 15.8752 59.8766 17.2975 58.9768 20.1709V20.1418H58.077V15.9625H53.3751V43.1871H58.077V27.7463C58.077 25.2211 58.6575 23.3636 59.8186 22.2607C60.9505 21.1287 62.692 20.5773 65.043 20.5773H68.0323V15.8752H65.7394ZM19.6203 38.8047C18.7787 40.488 17.6468 41.7651 16.2536 42.6649C14.8313 43.5645 12.9157 44 10.4778 44C7.19806 44 4.64394 43.042 2.78628 41.1555C0.928831 39.2398 0 36.5407 0 33.0289V15.9626H4.70192V32.1871C4.70192 34.6541 5.34041 36.5407 6.58848 37.8467C7.83655 39.1238 9.66511 39.7915 12.0451 39.7915C14.7442 39.7915 16.805 38.9788 18.2562 37.3533C19.7074 35.728 20.4331 33.319 20.4331 30.0973V15.9626H25.1349V43.1874H20.4038V38.8047H19.6203ZM91.8614 38.8047C91.0199 40.488 89.8878 41.7651 88.4946 42.6649C87.0726 43.5645 85.1569 44 82.7188 44C79.4391 44 76.8849 43.042 75.0275 41.1555C73.1699 39.2398 72.2412 36.5407 72.2412 33.0289V15.9626H76.9432V32.1871C76.9432 34.6541 77.5817 36.5407 78.8297 37.8467C80.0777 39.1238 81.9061 39.7915 84.2862 39.7915C86.9855 39.7915 89.0462 38.9788 90.4974 37.3533C91.9484 35.728 92.6741 33.319 92.6741 30.0973V15.9626H97.376V43.1874H92.6741V38.8047H91.8614ZM141.406 39.0076H147.443H149.271V43.1871H145.614C142.625 43.1871 140.39 42.4614 138.909 40.9811C137.458 39.5301 136.704 37.2952 136.704 34.2766V20.1709H130.434V15.9625H136.704V8.64836H141.406V15.9625H148.458V20.1418H141.406V38.3691V39.0076Z"
    fill="#858585" />
</svg>